<svg xmlns="http://www.w3.org/2000/svg" viewBox="0 0 64 64" role="img" aria-label="media-to-md icon">
  <defs>
    <linearGradient id="bg" x1="8" y1="6" x2="56" y2="58" gradientUnits="userSpaceOnUse">
      <stop stop-color="#0969da"/>
      <stop offset="1" stop-color="#1a7f37"/>
    </linearGradient>
    <filter id="shadow" x="-20%" y="-20%" width="140%" height="140%">
      <feDropShadow dx="0" dy="2" stdDeviation="2" flood-color="#000" flood-opacity=".22"/>
    </filter>
  </defs>
  <rect width="64" height="64" rx="14" fill="#24292f"/>
  <path d="M10 45h16c5.5 0 10-4.5 10-10V19" fill="none" stroke="url(#bg)" stroke-width="5" stroke-linecap="round"/>
  <path d="M10 45h27" fill="none" stroke="#54aeef" stroke-width="5" stroke-linecap="round"/>
  <path d="M31 35l6-6 6 6" fill="none" stroke="#3fb950" stroke-width="5" stroke-linecap="round" stroke-linejoin="round"/>
  <g filter="url(#shadow)">
    <path d="M34 12h12l9 9v27a4 4 0 0 1-4 4H34a4 4 0 0 1-4-4V16a4 4 0 0 1 4-4Z" fill="#fff"/>
    <path d="M46 12v9h9" fill="#d8dee4"/>
    <path d="M38 31h10M38 38h8" stroke="#57606a" stroke-width="3" stroke-linecap="round"/>
    <text x="36" y="48" fill="#24292f" font-family="ui-monospace, SFMono-Regular, Menlo, Consolas, monospace" font-size="10" font-weight="800">MD</text>
  </g>
  <path d="M13 25v11M20 19v23M27 27v7" stroke="#ffffff" stroke-opacity=".9" stroke-width="4" stroke-linecap="round"/>
</svg>
